{"title":"Vennello Hai Hai 2016 CAM Telugu Movies xviD-TvMovize.mp4","uid":13927675,"size":806950289,"categoryP":"video","categoryS":"movies","magnet":"?xt=urn:btih:79c556f3ddefdc33abba3400b4c7d8c8a2888464&amp;dn=Vennello+Hai+Hai+2016+CAM+Telugu+Movies+xviD-TvMovize.mp4&amp;tr=udp%3A%2F%2Ftracker.leechers-paradise.org%3A6969&amp;tr=udp%3A%2F%2Fzer0day.ch%3A1337&amp;tr=udp%3A%2F%2Fopen.demonii.com%3A1337&amp;tr=udp%3A%2F%2Ftracker.coppersurfer.tk%3A6969&amp;tr=udp%3A%2F%2Fexodus.desync.com%3A6969","seeders":0,"leechers":1,"uploader":"TvMovize","files":1,"time":1458395777,"description":"Vennello Hai Hai 2016 CAM Telugu Movies xviD-TvMovize.mp4\r\n\r\n++ ScreenShots ++\r\n \nhttp://www.image2be.com/movie/VennelloHaiHai/1.html  \nhttp://www.image2be.com/movie/VennelloHaiHai/2.html  \nhttp://www.image2be.com/movie/VennelloHaiHai/3.html  \nhttp://www.image2be.com/movie/VennelloHaiHai/4.html  \nhttp://www.image2be.com/movie/VennelloHaiHai/5.html \r\n\r\n++ Info ++\r\n\r\nFormat : MPEG-4 \r\nFormat profile : Base Media \r\nCodec ID : isom (isom/iso2/avc1/mp41) \r\nFile size : 770 MiB \r\nDuration : 1h 45mn \r\nOverall bit rate : 1 018 Kbps \r\nWriting application : Lavf57.20.100 \r\n\r\nVideo \r\nID : 1 \r\nFormat : AVC \r\nFormat/Info : Advanced Video Codec \r\nFormat profile :    \r\nFormat settings, CABAC : Yes \r\nFormat settings, ReFrames : 4 frames \r\nCodec ID : avc1 \r\nCodec ID/Info : Advanced Video Coding \r\nDuration : 1h 45mn \r\nBit rate : 900 Kbps \r\nWidth : 640 pixels \r\nHeight : 272 pixels \r\nDisplay aspect ratio : 2.35:1 \r\nFrame rate mode : Variable \r\nFrame rate : 25.000 fps \r\nMinimum frame rate : 20.000 fps \r\nMaximum frame rate : 25.000 fps \r\nColor space : YUV \r\nChroma subsampling : 4:2:0 \r\nBit depth : 8 bits \r\nScan type : Progressive \r\nBits/(Pixel*Frame) : 0.207 \r\nStream size : 680 MiB (88%) \r\nWriting library : x264 core 130 r2273 b3065e6 \r\nEncoding settings : cabac=1 / ref=1 / deblock=1:0:0 / analyse=0x1:0x111 / me=hex / subme=2 / psy=1 / psy_rd=1.00:0.00 / mixed_ref=0 / me_range=16 / chroma_me=1 / trellis=0 / 8x8dct=0 / cqm=0 / deadzone=21,11 / fast_pskip=1 / chroma_qp_offset=0 / threads=6 / lookahead_threads=2 / sliced_threads=0 / nr=0 / decimate=1 / interlaced=0 / bluray_compat=0 / constrained_intra=0 / bframes=3 / b_pyramid=2 / b_adapt=1 / b_bias=0 / direct=1 / weightb=1 / open_gop=0 / weightp=1 / keyint=250 / keyint_min=25 / scenecut=40 / intra_refresh=0 / rc_lookahead=10 / rc=abr / mbtree=1 / bitrate=900 / ratetol=1.0 / qcomp=0.60 / qpmin=0 / qpmax=69 / qpstep=4 / vbv_maxrate=20000 / vbv_bufsize=25000 / nal_hrd=none / ip_ratio=1.40 / aq=1:1.00 \r\nLanguage : English \r\nColor range : Limited \r\nColor primaries : BT.709 \r\nTransfer characteristics : BT.709 \r\nMatrix coefficients : BT.709 \r\n\r\nAudio \r\nID : 2 \r\nFormat : AAC \r\nFormat/Info : Advanced Audio Codec \r\nFormat profile : LC \r\nCodec ID : 40 \r\nDuration : 1h 45mn \r\nBit rate mode : Constant \r\nBit rate : 112 Kbps \r\nChannel(s) : 2 channels \r\nChannel positions : Front: L R \r\nSampling rate : 48.0 KHz \r\nFrame rate : 46.875 fps (1024 spf) \r\nCompression mode : Lossy \r\nStream size : 84.6 MiB (11%) \r\nDefault : Yes \r\nAlternate group : 1","torrent":{"xt":"urn:btih:79c556f3ddefdc33abba3400b4c7d8c8a2888464","amp;dn":"Vennello+Hai+Hai+2016+CAM+Telugu+Movies+xviD-TvMovize.mp4","amp;tr":["udp%3A%2F%2Ftracker.leechers-paradise.org%3A6969","udp%3A%2F%2Fzer0day.ch%3A1337","udp%3A%2F%2Fopen.demonii.com%3A1337","udp%3A%2F%2Ftracker.coppersurfer.tk%3A6969","udp%3A%2F%2Fexodus.desync.com%3A6969"],"infoHash":"79c556f3ddefdc33abba3400b4c7d8c8a2888464","infoHashBuffer":{"type":"Buffer","data":[121,197,86,243,221,239,220,51,171,186,52,0,180,199,216,200,162,136,132,100]},"announce":[],"urlList":[]}}